<svg xmlns="http://www.w3.org/2000/svg" viewBox="0 0 198 196"><defs><style>.cls-1{fill:#fff;}.cls-2{fill:#3663ac;}.cls-3{fill:#d7ad51;}.cls-4{fill:#d8ae51;}</style></defs><g id="Layer_2" data-name="Layer 2"><g id="home"><path class="cls-1" d="M99,0q2.43,0,4.86.12c1.62.08,3.23.19,4.84.35s3.22.36,4.83.59,3.19.51,4.78.82,3.17.67,4.75,1.06,3.13.81,4.68,1.28,3.09,1,4.61,1.51,3,1.12,4.54,1.73,3,1.26,4.44,2,2.91,1.41,4.34,2.16,2.84,1.55,4.23,2.37,2.75,1.68,4.1,2.58,2.67,1.81,4,2.77,2.58,1.94,3.83,2.95,2.48,2.07,3.68,3.15,2.38,2.18,3.52,3.31,2.27,2.3,3.35,3.49,2.15,2.4,3.18,3.64,2,2.5,3,3.79,1.9,2.6,2.8,3.93,1.76,2.69,2.6,4.07,1.63,2.77,2.39,4.18,1.49,2.85,2.18,4.3,1.35,2.92,2,4.4,1.21,3,1.75,4.48,1.06,3,1.53,4.57.9,3.08,1.29,4.64.75,3.12,1.07,4.69.59,3.15.83,4.74.43,3.18.59,4.77.28,3.2.36,4.8S198,96.4,198,98s0,3.21-.12,4.81-.2,3.2-.36,4.8-.35,3.18-.59,4.77-.52,3.17-.83,4.74-.67,3.14-1.07,4.69-.82,3.1-1.29,4.64-1,3.06-1.53,4.57-1.13,3-1.75,4.48-1.27,2.95-2,4.4-1.42,2.88-2.18,4.3-1.56,2.81-2.39,4.18-1.7,2.73-2.6,4.07-1.84,2.64-2.8,3.93-2,2.55-3,3.79-2.09,2.45-3.18,3.64-2.2,2.35-3.35,3.49-2.32,2.24-3.52,3.31-2.42,2.13-3.68,3.15-2.52,2-3.83,3-2.62,1.88-4,2.77-2.71,1.75-4.1,2.58-2.8,1.61-4.23,2.37-2.88,1.48-4.34,2.16-3,1.34-4.44,1.95-3,1.19-4.54,1.73-3.06,1-4.61,1.51-3.11.89-4.68,1.28-3.16.74-4.75,1.06-3.18.58-4.78.82-3.21.43-4.83.59-3.22.27-4.84.35-3.24.12-4.86.12-3.24,0-4.86-.12-3.23-.19-4.84-.35-3.22-.36-4.83-.59-3.19-.51-4.78-.82-3.17-.67-4.75-1.06-3.13-.81-4.68-1.28-3.09-1-4.61-1.51-3-1.12-4.54-1.73-3-1.26-4.44-1.95-2.91-1.41-4.34-2.16-2.84-1.55-4.23-2.37-2.75-1.68-4.1-2.58-2.67-1.81-4-2.77-2.58-1.94-3.83-3-2.48-2.07-3.68-3.15-2.38-2.18-3.52-3.31-2.27-2.3-3.35-3.49-2.15-2.4-3.18-3.64-2-2.5-3-3.79-1.9-2.6-2.8-3.93-1.76-2.69-2.6-4.07-1.63-2.77-2.39-4.18-1.49-2.85-2.18-4.3-1.35-2.92-2-4.4-1.21-3-1.75-4.48-1.06-3-1.53-4.57-.9-3.08-1.29-4.64-.75-3.12-1.07-4.69-.59-3.15-.83-4.74-.43-3.18-.59-4.77-.28-3.2-.36-4.8S0,99.6,0,98s0-3.21.12-4.81.2-3.2.36-4.8.35-3.18.59-4.77.52-3.17.83-4.74S2.57,75.74,3,74.19s.82-3.1,1.29-4.64,1-3.06,1.53-4.57,1.13-3,1.75-4.48,1.27-3,2-4.4,1.42-2.88,2.18-4.3,1.56-2.81,2.39-4.18,1.7-2.73,2.6-4.07,1.84-2.64,2.8-3.93,2-2.55,3-3.79,2.09-2.45,3.18-3.64,2.2-2.35,3.35-3.49,2.32-2.24,3.52-3.31,2.42-2.13,3.68-3.15,2.52-2,3.83-2.95,2.62-1.88,4-2.77,2.71-1.75,4.1-2.58,2.8-1.61,4.23-2.37,2.88-1.48,4.34-2.16,2.95-1.34,4.44-1.95,3-1.19,4.54-1.73,3.06-1,4.61-1.51,3.11-.89,4.68-1.28,3.16-.74,4.75-1.06,3.18-.58,4.78-.82S87.68.63,89.3.47,92.52.2,94.14.12,97.38,0,99,0Z"/><path class="cls-2" d="M73.66,188.05a.89.89,0,0,1,.29.71,1,1,0,0,1-.29.64,10.65,10.65,0,0,1-2.41,1.77,7.57,7.57,0,0,1-3.57.74,7.47,7.47,0,0,1-2.93-.57,6.94,6.94,0,0,1-2.33-1.57,7.52,7.52,0,0,1-1.54-2.44,8.63,8.63,0,0,1-.56-3.14v-7.07a8.5,8.5,0,0,1,.56-3.1,7.41,7.41,0,0,1,1.54-2.44A7,7,0,0,1,64.75,170a7.3,7.3,0,0,1,2.93-.58,8.3,8.3,0,0,1,3.5.74,6.12,6.12,0,0,1,1.24.72,8.06,8.06,0,0,1,.88.76.83.83,0,0,1,0,1.34l-.74.74a.93.93,0,0,1-.61.34,1,1,0,0,1-.67-.34,9.21,9.21,0,0,0-1.27-.9,4.52,4.52,0,0,0-2.33-.51,4.2,4.2,0,0,0-1.82.37,4.12,4.12,0,0,0-1.35,1,4.52,4.52,0,0,0-.85,1.54,6.11,6.11,0,0,0-.29,1.88v7.07a5.18,5.18,0,0,0,1.14,3.49A4,4,0,0,0,67.68,189a4.88,4.88,0,0,0,2.39-.53,8.36,8.36,0,0,0,1.6-1.07,1.1,1.1,0,0,1,.65-.29.83.83,0,0,1,.69.29Z"/><path class="cls-2" d="M84.75,173.81c-.07-.23-.18-.35-.33-.35s-.25.12-.32.35l-2.54,8.49a1,1,0,0,0,0,.62.75.75,0,0,0,.32.34l6,3.54c.24.15.41.16.52,0a.39.39,0,0,0,.1-.4Zm7.1,17.77a1,1,0,0,1-.73.23,1.82,1.82,0,0,1-.75-.23L81,186.12a.38.38,0,0,0-.41,0,.75.75,0,0,0-.24.32l-1.31,4.37a1,1,0,0,1-1.1.77H76.39c-.62,0-.85-.29-.68-.89l6.43-20.09a1.15,1.15,0,0,1,.44-.69,1.28,1.28,0,0,1,.72-.18h2.25a1.28,1.28,0,0,1,.72.18,1.2,1.2,0,0,1,.44.69l6.13,19.22a1,1,0,0,1-.25,1.15Z"/><path class="cls-2" d="M102.74,170.69a.94.94,0,0,1,.26-.7,1,1,0,0,1,.71-.26h1.12a1,1,0,0,1,.71.26.94.94,0,0,1,.26.7v15.75a5.43,5.43,0,0,1-.44,2.17,5.21,5.21,0,0,1-1.2,1.74,5.9,5.9,0,0,1-1.83,1.14,6.26,6.26,0,0,1-2.32.42,6.15,6.15,0,0,1-2.3-.42,5.44,5.44,0,0,1-1.78-1.14,5.06,5.06,0,0,1-1.14-1.74,5.77,5.77,0,0,1-.4-2.17v-1a.93.93,0,0,1,.26-.71.94.94,0,0,1,.7-.26h1.13a.94.94,0,0,1,.7.26,1,1,0,0,1,.26.71v.8a3.37,3.37,0,0,0,.15,1,2.41,2.41,0,0,0,.45.87,2.31,2.31,0,0,0,.78.62A2.66,2.66,0,0,0,100,189a2.85,2.85,0,0,0,1.22-.24,2.5,2.5,0,0,0,.85-.62,2.38,2.38,0,0,0,.5-.87,3.08,3.08,0,0,0,.16-1Z"/><path class="cls-2" d="M117.53,173.81c-.07-.23-.17-.35-.32-.35s-.26.12-.32.35l-2.54,8.49a.91.91,0,0,0,0,.62.72.72,0,0,0,.33.34l6,3.54c.23.15.4.16.51,0a.39.39,0,0,0,.1-.4Zm7.1,17.77a1,1,0,0,1-.72.23,1.87,1.87,0,0,1-.76-.23l-9.35-5.46a.36.36,0,0,0-.4,0,.62.62,0,0,0-.24.32l-1.32,4.37a1,1,0,0,1-1.09.77h-1.58c-.62,0-.84-.29-.67-.89l6.42-20.09a1.2,1.2,0,0,1,.44-.69,1.28,1.28,0,0,1,.72-.18h2.25a1.28,1.28,0,0,1,.72.18,1.15,1.15,0,0,1,.44.69l6.14,19.22a1,1,0,0,1-.26,1.15Z"/><path class="cls-2" d="M129.74,191.58a1,1,0,0,1-.71-.25,1,1,0,0,1-.25-.71V170.69a.94.94,0,0,1,.25-.7,1,1,0,0,1,.71-.26h1.13a.94.94,0,0,1,.7.26.91.91,0,0,1,.26.7v17.68a.29.29,0,0,0,.32.32h8.78a.94.94,0,0,1,.7.26.93.93,0,0,1,.26.71v1a.93.93,0,0,1-.26.71.94.94,0,0,1-.7.25Z"/><polygon class="cls-3" points="50.67 76.61 48.73 76.76 47.8 78.48 46.99 76.69 45.05 76.35 46.53 74.96 46.4 72.94 48.05 74.02 49.87 73.27 49.37 75.16 50.67 76.61"/><path class="cls-3" d="M48.28,84.32l-1.89.45c-.22.61-.46,1.22-.66,1.84-.38-.54-.72-1.08-1.08-1.64l-2,0,1.26-1.6c-.17-.65-.3-1.31-.45-2l1.8.82,1.68-1-.2,1.95C47.27,83.51,47.76,83.92,48.28,84.32Z"/><path class="cls-3" d="M47.11,92.31l-1.81.74c-.13.64-.28,1.28-.36,1.92-.47-.48-.9-1-1.33-1.46l-2,.27,1-1.77c-.28-.63-.5-1.26-.75-1.9l1.9.54,1.51-1.27.09,2C46,91.67,46.53,92,47.11,92.31Z"/><path class="cls-3" d="M47.17,100.39l-1.68,1c-.05.65-.06,1.3-.05,1.95-.52-.4-1.06-.81-1.55-1.24l-1.9.56.74-1.9c-.36-.58-.72-1.16-1-1.76l2,.24L45,97.77l.37,1.91Z"/><path class="cls-3" d="M48.47,108.37,47,109.62c0,.65.17,1.29.25,1.94l-1.72-1-1.78.84c.11-.67.29-1.34.44-2-.43-.52-.9-1-1.31-1.58l2-.06,1.08-1.67c.23.62.41,1.24.67,1.84Z"/><path class="cls-3" d="M51,116.06c-.44.48-.89,1-1.31,1.47l.54,1.87-1.84-.72-1.63,1.1c0-.68,0-1.35.12-2l-1.53-1.36,2-.36c.24-.61.53-1.21.81-1.81.29.58.61,1.15.94,1.71Z"/><path class="cls-3" d="M54.57,123.28c-.37.55-.71,1.09-1,1.65l.8,1.78-1.92-.44L51,127.61c-.07-.69-.15-1.35-.19-2l-1.7-1.11,1.86-.66c.17-.65.31-1.27.52-1.9.37.53.8,1,1.19,1.54Z"/><path class="cls-3" d="M59.26,129.87l-.79,1.78c.36.54.69,1.1,1.07,1.63-.67,0-1.3-.08-2-.13l-1.23,1.54-.5-2c-.62-.26-1.22-.56-1.85-.85l1.74-.93.21-1.95,1.42,1.34C58,130.18,58.62,130,59.26,129.87Z"/><path class="cls-3" d="M64.91,135.64l-.52,1.89c.43.48.85,1,1.31,1.45-.66.08-1.31.13-2,.17l-1,1.72L62,139c-.67-.15-1.31-.35-2-.55l1.58-1.18-.09-2,1.61,1.11C63.7,136.17,64.31,135.91,64.91,135.64Z"/><path class="cls-3" d="M71.37,140.49l-.22,1.94c.5.42,1,.85,1.52,1.23q-1,.27-1.92.48l-.7,1.85L69,144.25c-.68-.05-1.35-.14-2-.24l1.38-1.42L68,140.66l1.74.86C70.25,141.19,70.82,140.84,71.37,140.49Z"/><path class="cls-3" d="M78.5,144.3l.08,2c.55.33,1.1.69,1.68,1-.6.27-1.21.52-1.82.75L78,149.94l-1.32-1.56c-.68.05-1.35.06-2,.07l1.14-1.61L75.14,145l1.86.59C77.5,145.17,78,144.73,78.5,144.3Z"/><path class="cls-3" d="M86.12,147l.37,1.92c.6.26,1.2.51,1.82.72-.56.35-1.12.71-1.69,1l-.12,2L85,151.29c-.66.16-1.33.28-2,.38l.89-1.76-.95-1.73,1.93.3C85.27,148,85.7,147.49,86.12,147Z"/><path class="cls-3" d="M94.06,148.48l.66,1.84c.63.18,1.27.3,1.91.43-.49.43-1,.87-1.51,1.28l.19,2c-.59-.35-1.17-.73-1.73-1.09-.64.24-1.28.49-1.93.69l.61-1.88-1.2-1.57c.65,0,1.3,0,2,0Z"/><path class="cls-3" d="M102.13,148.73l.94,1.73c.65.06,1.3.08,2,.12l-1.3,1.5.49,1.91c-.63-.24-1.26-.54-1.88-.81-.58.33-1.18.67-1.79,1l.31-1.95c-.48-.45-1-.92-1.42-1.37.64-.1,1.28-.17,1.92-.31Z"/><path class="cls-3" d="M110.15,147.75c.39.52.79,1.06,1.19,1.56l2-.17-1.06,1.67.77,1.81c-.66-.15-1.31-.31-2-.51l-1.62,1.24v-2c-.55-.35-1.09-.74-1.62-1.13.62-.17,1.24-.38,1.86-.6Z"/><path class="cls-3" d="M117.93,145.56c.47.47.93.9,1.41,1.35l1.9-.45-.79,1.8,1,1.68c-.68-.07-1.35-.12-2-.2L118,151.2l-.29-2c-.6-.28-1.18-.54-1.77-.86.6-.27,1.17-.59,1.75-.88Z"/><path class="cls-3" d="M125.29,142.21l1.59,1.12c.6-.25,1.23-.46,1.81-.74-.14.65-.32,1.27-.5,1.9l1.28,1.51-2,.11c-.38.57-.78,1.1-1.19,1.66l-.58-1.89-1.88-.58,1.59-1.14C125.36,143.51,125.33,142.87,125.29,142.21Z"/><path class="cls-3" d="M132,137.77l1.75.87c.57-.32,1.13-.65,1.67-1-.05.65-.11,1.32-.2,2l1.5,1.29-2,.41c-.28.62-.59,1.22-.91,1.82l-.86-1.77-2-.3,1.41-1.35C132.32,139.06,132.18,138.41,132,137.77Z"/><path class="cls-3" d="M138,132.36l1.87.59c.52-.4,1-.83,1.49-1.26.05.65.09,1.32.11,2l1.68,1c-.63.25-1.29.48-1.92.71-.19.65-.38,1.32-.61,2l-1.13-1.62h-2c.4-.52.81-1,1.18-1.55Z"/><path class="cls-3" d="M143.12,126.08l1.94.3c.46-.46.85-1,1.28-1.47l.42,1.94,1.81.77c-.58.36-1.2.67-1.79,1-.09.66-.17,1.35-.3,2l-1.36-1.43-2,.3c.31-.57.65-1.12.92-1.71Z"/><path class="cls-3" d="M147.2,119.1h2c.38-.53.69-1.1,1-1.65l.7,1.86,1.91.48c-.52.44-1.08.85-1.62,1.26,0,.67,0,1.36,0,2l-1.56-1.2-1.89.59c.22-.62.47-1.21.65-1.84Z"/><path class="cls-3" d="M150.18,111.59l1.94-.29c.3-.59.52-1.19.78-1.79l1,1.73,2,.19c-.44.51-.94,1-1.4,1.48.1.67.23,1.35.31,2L153,114l-1.79.87c.13-.64.29-1.26.37-1.91Z"/><path class="cls-3" d="M152,103.72l1.88-.59c.17-.63.32-1.26.49-1.89l1.22,1.56,2-.12c-.35.58-.75,1.14-1.15,1.69l.63,1.95-1.86-.68c-.52.39-1.09.77-1.62,1.14,0-.65.07-1.3.06-2Z"/><path class="cls-3" d="M152.54,95.66c.59-.28,1.19-.57,1.76-.87l.2-1.94,1.44,1.35,1.93-.41c-.28.62-.55,1.23-.87,1.84l.9,1.83L156,97.07c-.45.47-.93.93-1.42,1.38,0-.65-.14-1.3-.24-1.94Z"/><path class="cls-3" d="M151.87,87.61c.54-.37,1.06-.74,1.59-1.13l-.08-2L155,85.65l1.85-.7c-.19.66-.37,1.3-.57,2l1.16,1.67-2-.09c-.39.54-.76,1.06-1.18,1.58-.15-.64-.36-1.26-.54-1.88Z"/><path class="cls-3" d="M150,79.75l1.4-1.35c-.13-.64-.22-1.29-.38-1.92.61.27,1.19.56,1.77.86l1.73-1-.28,2c.49.47.93,1,1.4,1.48l-2,.21-.93,1.74L151.91,80C151.26,79.93,150.62,79.83,150,79.75Z"/><path class="cls-3" d="M146.9,72.28l1.18-1.56c-.2-.62-.43-1.23-.67-1.83.62.18,1.28.36,1.89.57l1.56-1.23,0,2c.55.39,1.09.81,1.61,1.24l-1.9.51-.67,1.86-1-1.64Z"/><path class="cls-3" d="M142.72,65.36l.94-1.73c-.28-.58-.63-1.13-.95-1.7l2,.27L146,60.76c.14.66.23,1.35.33,2,.59.31,1.22.62,1.8,1l-1.8.79L146,66.49c-.44-.49-.84-1-1.3-1.46Z"/><path class="cls-3" d="M137.55,59.16l.67-1.85L137,55.77l2,0,1.1-1.64c.24.64.45,1.29.65,1.94l1.93.68L141,57.8c0,.65-.05,1.33-.08,2-.49-.43-1-.84-1.51-1.23Z"/><path class="cls-3" d="M131.48,53.83c.13-.64.26-1.29.37-1.93l-1.42-1.34,1.95-.32.84-1.78c.33.59.64,1.18.93,1.81l2,.38L134.67,52c.1.65.18,1.31.24,2-.55-.35-1.12-.67-1.69-1Z"/><path class="cls-3" d="M124.66,49.49c0-.65.07-1.32.08-2l-1.61-1.1L125,45.8l.56-1.89c.41.54.82,1.08,1.19,1.65l2,.08-1.26,1.52c.19.62.37,1.25.53,1.9-.59-.27-1.21-.49-1.82-.72Z"/><path class="cls-3" d="M117.27,46.22c-.07-.64-.14-1.31-.22-1.95l-1.76-.85,1.76-.89.26-2c.5.47,1,.93,1.44,1.44l2-.23-1,1.7q.42.87.81,1.8c-.63-.18-1.27-.3-1.91-.44Z"/><path class="cls-3" d="M109.47,44.12c-.17-.63-.34-1.27-.52-1.88l-1.87-.58,1.6-1.15,0-2c.55.41,1.11.77,1.64,1.21l2-.54L111.51,41c.37.55.73,1.08,1.07,1.65-.64-.08-1.3-.09-1.94-.13Z"/><path class="cls-3" d="M101.44,43.25c-.26-.6-.53-1.19-.81-1.78l-1.93-.29c.46-.46.93-.91,1.41-1.37l-.34-2,1.8.93,1.87-.82L103,39.9c.45.49.89,1,1.32,1.45-.65,0-1.3.12-2,.18Z"/><path class="cls-3" d="M93.37,43.62,92.3,42c-.65,0-1.31,0-2,0,.38-.55.78-1.06,1.18-1.58l-.63-1.88,1.93.66c.56-.4,1.13-.73,1.72-1.1l-.17,2,1.53,1.24-1.9.46C93.78,42.38,93.57,43,93.37,43.62Z"/><path class="cls-3" d="M85.44,45.22l-1.3-1.46c-.65.08-1.29.19-1.93.32.3-.58.6-1.19.92-1.76l-.91-1.75,2,.37c.5-.48,1-.93,1.53-1.36l.14,2,1.7,1-1.81.73Z"/><path class="cls-3" d="M77.86,48l-1.52-1.26c-.63.18-1.23.41-1.85.61l.64-1.87L74,43.9c.67,0,1.37,0,2,.05.42-.52.85-1.07,1.3-1.58l.43,1.92,1.84.75c-.56.34-1.13.63-1.67,1Z"/><path class="cls-3" d="M70.78,51.9l-1.69-1-1.74.89.36-1.94-1.4-1.4c.68-.11,1.35-.2,2-.26l1-1.76.73,1.84c.64.12,1.29.29,1.92.45-.51.4-1,.82-1.5,1.25Z"/><path class="cls-3" d="M64.38,56.83l-1.82-.73L61,57.24l.07-2-1.6-1.16c.66-.2,1.29-.42,2-.58l.77-1.89,1,1.71c.66,0,1.3.07,2,.14-.45.46-.86,1-1.29,1.47Z"/><path class="cls-3" d="M58.82,62.69c-.64-.16-1.26-.3-1.9-.43l-1.41,1.35-.23-2-1.76-.9,1.84-.88.48-2,1.25,1.54c.66-.07,1.3-.13,2-.17-.36.54-.7,1.1-1,1.65Z"/><polygon class="cls-3" points="54.22 69.34 52.28 69.2 51.09 70.75 50.56 68.86 48.69 68.23 50.37 67.09 50.54 65.06 52.01 66.39 53.92 65.92 53.14 67.71 54.22 69.34"/><path class="cls-2" d="M33,130.66c-.09.09-.12.16-.08.23s.11.09.23.06l4.34-.85a.44.44,0,0,0,.29-.13.32.32,0,0,0,.07-.22l.17-3.5c0-.13,0-.22-.1-.23a.19.19,0,0,0-.2,0Zm6.22-7.27a.51.51,0,0,1,.27.27.85.85,0,0,1,.07.39l-.25,5.41a.17.17,0,0,0,.1.17.28.28,0,0,0,.2,0l2.24-.44a.5.5,0,0,1,.59.31l.37.7q.21.4-.24.51L32.2,132.56a.66.66,0,0,1-.41,0,.62.62,0,0,1-.24-.28l-.53-1a.69.69,0,0,1-.09-.37.61.61,0,0,1,.21-.35l7.09-7.18a.5.5,0,0,1,.57-.15Z"/><path class="cls-2" d="M29.46,117.23a2.73,2.73,0,0,0-.91.49,2.13,2.13,0,0,0-.56.71,2.15,2.15,0,0,0-.21.88,2.86,2.86,0,0,0,.16,1l.51,1.52a.14.14,0,0,0,.2.11L36,119.45a.14.14,0,0,0,.1-.2l-.51-1.52a3.18,3.18,0,0,0-.46-.88,2.34,2.34,0,0,0-.69-.57,1.94,1.94,0,0,0-.87-.23,2.55,2.55,0,0,0-1,.16Zm8.36,2.7a.45.45,0,0,1,0,.38.43.43,0,0,1-.29.23l-9.45,3.17a.44.44,0,0,1-.61-.3l-.89-2.67a4.28,4.28,0,0,1-.24-1.63,3.66,3.66,0,0,1,1.28-2.58,4.18,4.18,0,0,1,1.36-.75l3.05-1a3.94,3.94,0,0,1,1.54-.22,3.58,3.58,0,0,1,2.57,1.29,4.2,4.2,0,0,1,.8,1.44Z"/><path class="cls-2" d="M34.41,107.41a.63.63,0,0,1,0,.37.58.58,0,0,1-.3.27l-9.39,4.82c-.28.13-.44,0-.49-.26l-.13-.78a.49.49,0,0,1,.29-.6l8-3.88c.11,0,.16-.12.15-.19s-.08-.12-.2-.13l-8.8-1.1a.51.51,0,0,1-.47-.47l-.13-.78c-.05-.31.08-.44.39-.41L33.7,105.8a.64.64,0,0,1,.38.16.72.72,0,0,1,.15.34Z"/><path class="cls-2" d="M24.55,97.36c-.12,0-.18.09-.17.17s.06.12.18.15l4.26,1.19a.5.5,0,0,0,.32,0,.38.38,0,0,0,.16-.17l1.71-3c.07-.12.08-.21,0-.26a.23.23,0,0,0-.21-.05Zm8.81-3.73a.49.49,0,0,1,.12.36,1,1,0,0,1-.1.38L30.74,99.1a.18.18,0,0,0,0,.2.33.33,0,0,0,.17.12l2.2.61a.51.51,0,0,1,.39.54l0,.79c0,.31-.14.43-.44.35L23,98.7a.62.62,0,0,1-.35-.21.73.73,0,0,1-.1-.36l0-1.13a.64.64,0,0,1,.08-.36.65.65,0,0,1,.34-.23l9.55-3.26a.5.5,0,0,1,.58.12Z"/><path class="cls-2" d="M34.46,83.93a.53.53,0,0,1-.17.34,1.38,1.38,0,0,1-.39.23l-7.65,3q-.15.06-.12.15a.14.14,0,0,0,.14.11l7,1a.48.48,0,0,1,.33.17.46.46,0,0,1,.08.37l-.08.56a.45.45,0,0,1-.18.33.48.48,0,0,1-.36.08l-9.87-1.39a.45.45,0,0,1-.33-.18.49.49,0,0,1-.08-.37l.09-.62a.86.86,0,0,1,.14-.38.81.81,0,0,1,.35-.25l7.28-2.91c.07,0,.1-.08.1-.14s-.05-.1-.13-.11L24,83a.45.45,0,0,1-.33-.18.48.48,0,0,1-.08-.36l.08-.56a.45.45,0,0,1,.18-.33.44.44,0,0,1,.36-.08l9.87,1.39a.45.45,0,0,1,.33.18.48.48,0,0,1,.08.36Z"/><path class="cls-2" d="M35.59,72.85a.43.43,0,0,1,.38,0,.47.47,0,0,1,.27.23,5,5,0,0,1,.49,1.41,4.23,4.23,0,0,1-.85,3.13,3.56,3.56,0,0,1-1.09.89,3.72,3.72,0,0,1-1.4.38,4.37,4.37,0,0,1-1.58-.18l-3.38-1a4.13,4.13,0,0,1-1.4-.72,3.63,3.63,0,0,1-1-1.09,3.45,3.45,0,0,1-.42-1.34A3.64,3.64,0,0,1,25.8,73a4.58,4.58,0,0,1,.38-.89,5.12,5.12,0,0,1,.48-.68,3.83,3.83,0,0,1,.53-.48,4.47,4.47,0,0,1,.49-.32.43.43,0,0,1,.65.2l.24.46a.47.47,0,0,1,.08.34.51.51,0,0,1-.26.27,4.4,4.4,0,0,0-.62.48,2.27,2.27,0,0,0-.58,1,2.14,2.14,0,0,0-.09.92,1.9,1.9,0,0,0,.3.8,2.28,2.28,0,0,0,.61.63,2.85,2.85,0,0,0,.86.41l3.39,1a2.65,2.65,0,0,0,1.83,0,2,2,0,0,0,1.1-1.33,2.6,2.6,0,0,0,.09-1.22,4.35,4.35,0,0,0-.29-.92.6.6,0,0,1,0-.35.43.43,0,0,1,.24-.29Z"/><path class="cls-2" d="M38.61,70.06a.46.46,0,0,1-.26.27.47.47,0,0,1-.38,0l-9-4.24a.46.46,0,0,1-.27-.26.51.51,0,0,1,0-.38L31,60.61a.45.45,0,0,1,.64-.23l.44.21a.53.53,0,0,1,.27.26.57.57,0,0,1,0,.38l-1.74,3.71a.14.14,0,0,0,.07.21l2.62,1.23a.13.13,0,0,0,.21-.08l1.61-3.41a.51.51,0,0,1,.27-.27.45.45,0,0,1,.37,0l.44.2a.51.51,0,0,1,.27.27.49.49,0,0,1,0,.37l-1.61,3.42c0,.1,0,.17.08.21l2.76,1.3a.15.15,0,0,0,.22-.07l1.88-4a.44.44,0,0,1,.64-.23l.44.2A.45.45,0,0,1,41,65Z"/><path class="cls-2" d="M40.08,53.12a2.75,2.75,0,0,0-.94-.41,2.16,2.16,0,0,0-.91,0,2,2,0,0,0-.82.37,2.61,2.61,0,0,0-.68.72l-.9,1.33a.14.14,0,0,0,.05.22l6.39,4.31a.15.15,0,0,0,.23,0l.89-1.33a2.68,2.68,0,0,0,.41-.9,2.07,2.07,0,0,0,0-.89,2.16,2.16,0,0,0-.34-.84,3.1,3.1,0,0,0-.76-.72ZM43,61.41a.46.46,0,0,1-.3.22.53.53,0,0,1-.37-.09L34.09,56A.45.45,0,0,1,34,55.3L35.53,53a4.32,4.32,0,0,1,1.15-1.18,3.71,3.71,0,0,1,1.37-.57,3.43,3.43,0,0,1,1.46,0,4.05,4.05,0,0,1,1.42.62l2.67,1.8a3.91,3.91,0,0,1,1.1,1.08,3.51,3.51,0,0,1,.57,1.34,3.75,3.75,0,0,1,0,1.49,4.35,4.35,0,0,1-.66,1.51Z"/><path class="cls-2" d="M57.66,44.61a.52.52,0,0,1-.35.15,1.78,1.78,0,0,1-.45-.08l-7.8-2.63c-.1,0-.16,0-.19,0a.14.14,0,0,0,0,.18l4.71,5.29a.44.44,0,0,1,0,.68l-.42.38a.47.47,0,0,1-.35.14.5.5,0,0,1-.33-.18l-6.63-7.44a.51.51,0,0,1-.14-.35.48.48,0,0,1,.19-.33l.46-.42a.93.93,0,0,1,.36-.2.83.83,0,0,1,.43,0l7.43,2.48a.14.14,0,0,0,.17,0s0-.1,0-.17l-4.43-5a.48.48,0,0,1-.13-.35.45.45,0,0,1,.17-.33l.42-.37A.48.48,0,0,1,51.1,36a.46.46,0,0,1,.33.18l6.63,7.44a.47.47,0,0,1,.14.35.5.5,0,0,1-.18.33Z"/><path class="cls-2" d="M61.56,41.65a.45.45,0,0,1-.36.08.46.46,0,0,1-.3-.22l-5.42-8.37a.52.52,0,0,1-.08-.37.5.5,0,0,1,.23-.3l4.45-2.88a.47.47,0,0,1,.37-.08.5.5,0,0,1,.3.23l.26.4a.47.47,0,0,1,.08.37.46.46,0,0,1-.22.3L57.42,33c-.09.06-.1.13,0,.23L59,35.68a.14.14,0,0,0,.22,0l3.17-2a.47.47,0,0,1,.37-.08.46.46,0,0,1,.3.22l.26.41a.44.44,0,0,1-.14.66L60,37a.14.14,0,0,0-.05.22l1.66,2.56a.14.14,0,0,0,.22.05l3.71-2.4a.47.47,0,0,1,.37-.08.49.49,0,0,1,.3.22l.26.41a.44.44,0,0,1,.08.36.46.46,0,0,1-.22.3Z"/><path class="cls-2" d="M70.62,24.86a.49.49,0,0,1,0-.37.51.51,0,0,1,.27-.27l.51-.22a.51.51,0,0,1,.38,0,.46.46,0,0,1,.26.27l2.81,6.31A4.11,4.11,0,0,1,75.18,32a3.35,3.35,0,0,1-.25,1.38,3.55,3.55,0,0,1-.79,1.18,4.25,4.25,0,0,1-2.76,1.23,3.83,3.83,0,0,1-1.4-.2,3.51,3.51,0,0,1-1.19-.75,3.89,3.89,0,0,1-.87-1.25l-2.81-6.32a.45.45,0,0,1,.24-.63l.52-.23a.49.49,0,0,1,.37,0,.45.45,0,0,1,.27.27L69.32,33a2.32,2.32,0,0,0,1.18,1.24,2.14,2.14,0,0,0,1.79-.1,2.11,2.11,0,0,0,1.26-1.26,2.33,2.33,0,0,0-.12-1.71Z"/><path class="cls-2" d="M81.41,25.77a1.69,1.69,0,0,0,.57-.28,1.42,1.42,0,0,0,.41-.47,1.53,1.53,0,0,0,.21-.61,1.62,1.62,0,0,0,0-.69,1.67,1.67,0,0,0-.31-.61,1.65,1.65,0,0,0-.48-.4,1.62,1.62,0,0,0-.58-.17,1.67,1.67,0,0,0-.63.05l-1.91.51a.14.14,0,0,0-.11.2l.76,2.87a.15.15,0,0,0,.2.11Zm3.88,5.37a.61.61,0,0,1-.68-.27l-2.89-3.45a.35.35,0,0,0-.39-.13l-1.47.39a.14.14,0,0,0-.11.2l1,4a.44.44,0,0,1-.34.59l-.54.14a.49.49,0,0,1-.38,0,.48.48,0,0,1-.21-.31l-2.58-9.62a.45.45,0,0,1,.34-.59l3.19-.85a3,3,0,0,1,2.33.28A3.06,3.06,0,0,1,84,23.33,3.09,3.09,0,0,1,84,25a2.94,2.94,0,0,1-.79,1.32c-.14.14-.13.3,0,.48l2.94,3.49a.46.46,0,0,1,.12.4.37.37,0,0,1-.29.24Z"/><path class="cls-2" d="M94.11,22.4a2.34,2.34,0,0,0-.75-1.54,2.15,2.15,0,0,0-1.73-.46,2.1,2.1,0,0,0-1.59.82,2.3,2.3,0,0,0-.41,1.66L90,26.71a2.35,2.35,0,0,0,.74,1.54,2.11,2.11,0,0,0,1.73.46,2.13,2.13,0,0,0,1.6-.81,2.3,2.3,0,0,0,.4-1.66ZM96,26.07a3.85,3.85,0,0,1-.12,1.53,3.45,3.45,0,0,1-.66,1.24,3.58,3.58,0,0,1-1.11.88,4.12,4.12,0,0,1-1.47.43A4.07,4.07,0,0,1,91.14,30a3.52,3.52,0,0,1-1.27-.63A3.26,3.26,0,0,1,89,28.34a4,4,0,0,1-.44-1.46L88.11,23a3.82,3.82,0,0,1,.12-1.52,3.29,3.29,0,0,1,.66-1.24A3.58,3.58,0,0,1,90,19.4a4.2,4.2,0,0,1,3-.32,3.76,3.76,0,0,1,1.27.62,3.18,3.18,0,0,1,.9,1.08,3.83,3.83,0,0,1,.44,1.46Z"/><path class="cls-2" d="M100,27.53a.4.4,0,0,1,.35-.13.56.56,0,0,1,.33.15l.28.27a2.09,2.09,0,0,0,.36.26,2.29,2.29,0,0,0,.47.21,2.8,2.8,0,0,0,.62.09,1.85,1.85,0,0,0,1.29-.37,1.36,1.36,0,0,0,.54-1,1.56,1.56,0,0,0-.39-1.18,5.48,5.48,0,0,0-1.37-1,10.43,10.43,0,0,1-1.07-.65,3.94,3.94,0,0,1-.81-.76,2.8,2.8,0,0,1-.5-.93,3.33,3.33,0,0,1-.14-1.17,2.88,2.88,0,0,1,.9-1.94,3.11,3.11,0,0,1,1-.59,3.36,3.36,0,0,1,1.29-.19,3.32,3.32,0,0,1,1.55.42,4.53,4.53,0,0,1,1,.79.41.41,0,0,1,0,.67l-.38.37A.49.49,0,0,1,105,21a.46.46,0,0,1-.33-.18,4.07,4.07,0,0,0-.63-.47,1.71,1.71,0,0,0-.93-.3,1.76,1.76,0,0,0-.66.09,1.59,1.59,0,0,0-.88.72,1,1,0,0,0-.14.52,1.82,1.82,0,0,0,.07.63,1.75,1.75,0,0,0,.31.52,2.32,2.32,0,0,0,.54.46,6,6,0,0,0,.82.45,10.94,10.94,0,0,1,1.15.67,3.81,3.81,0,0,1,.84.75,2.83,2.83,0,0,1,.5.92,3.56,3.56,0,0,1,.13,1.17,2.76,2.76,0,0,1-.3,1.14,3.08,3.08,0,0,1-.75.93,3.37,3.37,0,0,1-1.08.61,3.29,3.29,0,0,1-1.29.2,3.8,3.8,0,0,1-1.7-.4,4.06,4.06,0,0,1-1-.89.49.49,0,0,1-.13-.33.41.41,0,0,1,.16-.34Z"/><path class="cls-2" d="M115.53,29.61a.45.45,0,0,1,.08.38.55.55,0,0,1-.2.29,5.28,5.28,0,0,1-1.35.65,3.77,3.77,0,0,1-1.82,0,3.86,3.86,0,0,1-1.39-.55,3.46,3.46,0,0,1-1-1,3.7,3.7,0,0,1-.54-1.34,4.48,4.48,0,0,1,0-1.59L110,23a4.46,4.46,0,0,1,.56-1.48,3.84,3.84,0,0,1,1-1.06,3.74,3.74,0,0,1,1.29-.57,3.92,3.92,0,0,1,1.49,0,4.44,4.44,0,0,1,.93.28,4.51,4.51,0,0,1,.73.4,3.64,3.64,0,0,1,.54.47c.15.17.27.32.37.45a.43.43,0,0,1-.12.67l-.44.29a.48.48,0,0,1-.33.12.57.57,0,0,1-.3-.23,3.8,3.8,0,0,0-.54-.56,2.24,2.24,0,0,0-1.1-.46,2.07,2.07,0,0,0-.93,0,1.92,1.92,0,0,0-.75.39,2.09,2.09,0,0,0-.56.68,2.9,2.9,0,0,0-.31.9l-.65,3.47a2.56,2.56,0,0,0,.25,1.82,1.94,1.94,0,0,0,1.43.94,2.5,2.5,0,0,0,1.23,0,4.07,4.07,0,0,0,.88-.38A.56.56,0,0,1,115,29a.4.4,0,0,1,.31.21Z"/><path class="cls-2" d="M118.7,32.38a.51.51,0,0,1-.3-.23.47.47,0,0,1,0-.37l2.88-9.54a.45.45,0,0,1,.6-.32l.54.16a.44.44,0,0,1,.32.6l-2.88,9.54a.5.5,0,0,1-.22.3.49.49,0,0,1-.38,0Z"/><path class="cls-2" d="M123.53,34a.44.44,0,0,1-.27-.26.44.44,0,0,1,0-.37l3.93-9.16a.46.46,0,0,1,.26-.27.44.44,0,0,1,.37,0L132.72,26a.46.46,0,0,1,.27.26.44.44,0,0,1,0,.37l-.19.45a.46.46,0,0,1-.26.27.44.44,0,0,1-.37,0l-3.77-1.62a.14.14,0,0,0-.21.09L127,28.47a.14.14,0,0,0,.08.21l3.47,1.49a.5.5,0,0,1,.28.25.51.51,0,0,1,0,.38l-.18.44a.51.51,0,0,1-.26.28.56.56,0,0,1-.38,0L126.54,30a.13.13,0,0,0-.21.08l-1.2,2.81a.14.14,0,0,0,.08.21l4.06,1.74a.51.51,0,0,1,.28.26.49.49,0,0,1,0,.37l-.19.45a.42.42,0,0,1-.25.27.46.46,0,0,1-.38,0Z"/><path class="cls-2" d="M137.43,41.27a.56.56,0,0,1-.24-.29,1.54,1.54,0,0,1,0-.46l.35-8.22q0-.15-.09-.18c-.06,0-.11,0-.16.09l-3.77,6a.45.45,0,0,1-.3.23.47.47,0,0,1-.37-.08l-.48-.3a.53.53,0,0,1-.23-.29.52.52,0,0,1,.08-.37L137.49,29a.45.45,0,0,1,.3-.23.43.43,0,0,1,.37.08l.53.33a.8.8,0,0,1,.29.29.83.83,0,0,1,.08.42l-.32,7.83a.14.14,0,0,0,.09.15s.1,0,.15-.08l3.54-5.63a.45.45,0,0,1,.67-.15l.47.3a.45.45,0,0,1,.23.3.51.51,0,0,1-.07.37l-5.31,8.43a.48.48,0,0,1-.3.23.47.47,0,0,1-.37-.08Z"/><path class="cls-2" d="M147.05,46.83a.44.44,0,0,1-.12.36.53.53,0,0,1-.32.15,5,5,0,0,1-1.49-.13,3.68,3.68,0,0,1-1.59-.89,3.78,3.78,0,0,1-.92-1.17,3.48,3.48,0,0,1-.36-1.36,3.78,3.78,0,0,1,.22-1.43,4.34,4.34,0,0,1,.82-1.37l2.32-2.66a4.1,4.1,0,0,1,1.24-1,3.45,3.45,0,0,1,2.78-.25,3.64,3.64,0,0,1,1.29.74,3.92,3.92,0,0,1,.66.71,5.55,5.55,0,0,1,.42.72,3.64,3.64,0,0,1,.23.68,5,5,0,0,1,.08.58.43.43,0,0,1-.44.51l-.52,0A.48.48,0,0,1,151,41a.5.5,0,0,1-.15-.35,4.17,4.17,0,0,0-.18-.76,2.33,2.33,0,0,0-.71-1,2.09,2.09,0,0,0-.8-.45,2,2,0,0,0-.85-.06,2.19,2.19,0,0,0-.83.3,2.78,2.78,0,0,0-.72.61L144.44,42a2.55,2.55,0,0,0-.71,1.69,2,2,0,0,0,.75,1.54,2.47,2.47,0,0,0,1.08.59,4.47,4.47,0,0,0,.95.12.51.51,0,0,1,.34.1.43.43,0,0,1,.17.34Z"/><path class="cls-2" d="M148.35,50.73a.45.45,0,0,1-.13-.35.5.5,0,0,1,.18-.33L156,43.57a.45.45,0,0,1,.35-.13.5.5,0,0,1,.33.18l3.45,4a.45.45,0,0,1,.13.35.5.5,0,0,1-.18.33l-.37.31a.45.45,0,0,1-.35.13.5.5,0,0,1-.33-.18l-2.67-3.11a.14.14,0,0,0-.22,0l-2.2,1.88a.15.15,0,0,0,0,.23l2.46,2.87a.45.45,0,0,1,.13.35.5.5,0,0,1-.18.33l-.37.31a.45.45,0,0,1-.35.13.5.5,0,0,1-.33-.18l-2.45-2.87c-.08-.08-.15-.09-.23,0l-2.32,2a.15.15,0,0,0,0,.23l2.88,3.35a.47.47,0,0,1,.13.35.5.5,0,0,1-.18.33l-.37.32a.51.51,0,0,1-.35.13A.48.48,0,0,1,152,55Z"/><path class="cls-2" d="M158.59,65.32a.5.5,0,0,1-.05-.37.5.5,0,0,1,.26-.28l7.85-4.06a.13.13,0,0,0,.07-.21l-1.11-2.14a.52.52,0,0,1,0-.38.44.44,0,0,1,.25-.27l.43-.23a.49.49,0,0,1,.37,0,.45.45,0,0,1,.28.25L170,63.52a.5.5,0,0,1,0,.37.47.47,0,0,1-.26.28l-.42.22a.52.52,0,0,1-.38,0,.49.49,0,0,1-.27-.26L167.57,62a.14.14,0,0,0-.22-.07L159.5,66a.45.45,0,0,1-.37,0,.45.45,0,0,1-.28-.25Z"/><path class="cls-2" d="M168.51,72.88a1.69,1.69,0,0,0,.32.55,1.51,1.51,0,0,0,.49.38A1.83,1.83,0,0,0,170,74a1.71,1.71,0,0,0,1.28-.44,1.49,1.49,0,0,0,.36-.51,1.45,1.45,0,0,0,.13-.59,1.69,1.69,0,0,0-.09-.63L171,69.94a.14.14,0,0,0-.2-.1l-2.82,1a.14.14,0,0,0-.1.2Zm-5.08,4.24a.62.62,0,0,1,.21-.7l3.25-3.12a.33.33,0,0,0,.1-.39l-.49-1.45a.14.14,0,0,0-.2-.1l-3.88,1.33a.45.45,0,0,1-.38,0,.43.43,0,0,1-.23-.29l-.19-.53a.55.55,0,0,1,0-.38.46.46,0,0,1,.29-.23L171.35,68a.45.45,0,0,1,.38,0,.43.43,0,0,1,.23.29L173,71.44a3,3,0,0,1,.17,1.21,3,3,0,0,1-.29,1.13,2.78,2.78,0,0,1-.72.92,2.86,2.86,0,0,1-1.06.61,3,3,0,0,1-1.68.12,3.12,3.12,0,0,1-1.38-.7c-.14-.13-.3-.12-.47,0l-3.28,3.16a.43.43,0,0,1-.39.14.37.37,0,0,1-.27-.26Z"/><path class="cls-2" d="M173.83,82.92c.11,0,.16-.12.15-.19s-.08-.12-.2-.13l-4.4-.51a.46.46,0,0,0-.31,0,.4.4,0,0,0-.14.19l-1.21,3.28c-.06.13-.05.21,0,.26a.2.2,0,0,0,.2,0Zm-8.13,5a.49.49,0,0,1-.17-.33,1,1,0,0,1,0-.39l1.88-5.09a.15.15,0,0,0,0-.19.32.32,0,0,0-.17-.09L165,81.6a.51.51,0,0,1-.48-.47l-.14-.78c0-.3.08-.44.39-.41l10.45,1.41a.67.67,0,0,1,.38.16.72.72,0,0,1,.15.34l.19,1.1a.67.67,0,0,1,0,.38.58.58,0,0,1-.3.27l-8.93,4.7a.51.51,0,0,1-.59,0Z"/><path class="cls-2" d="M166,91.82a.45.45,0,0,1,.45-.51l9.95-.57a.45.45,0,0,1,.51.45l0,.56a.47.47,0,0,1-.11.36.41.41,0,0,1-.34.15l-9.95.57a.44.44,0,0,1-.36-.11.47.47,0,0,1-.15-.34Z"/><path class="cls-2" d="M165.76,102.9a.5.5,0,0,1,.15-.35,1.26,1.26,0,0,1,.37-.26l7.4-3.62c.09,0,.13-.1.11-.16a.15.15,0,0,0-.16-.1L166.56,98a.45.45,0,0,1-.45-.51l0-.56a.46.46,0,0,1,.15-.35.47.47,0,0,1,.36-.1l9.94.63a.5.5,0,0,1,.35.15.47.47,0,0,1,.1.36l0,.62a.86.86,0,0,1-.11.4.92.92,0,0,1-.33.27l-7,3.47a.13.13,0,0,0-.08.14c0,.06.05.09.13.1l6.64.42a.5.5,0,0,1,.35.15.48.48,0,0,1,.1.36l0,.56a.5.5,0,0,1-.15.35.53.53,0,0,1-.36.11l-9.95-.64a.45.45,0,0,1-.45-.51Z"/><path class="cls-2" d="M165,107.82a.5.5,0,0,1,.19-.32.46.46,0,0,1,.37-.06l9.8,1.82a.5.5,0,0,1,.32.19.46.46,0,0,1,.06.37l-.1.56a.5.5,0,0,1-.19.32.46.46,0,0,1-.37.06l-9.8-1.82a.5.5,0,0,1-.32-.19.48.48,0,0,1-.06-.38Z"/><path class="cls-2" d="M162.18,118.52a.55.55,0,0,1,.22-.31,2.06,2.06,0,0,1,.43-.16l8-1.75c.1,0,.14-.07.14-.13a.14.14,0,0,0-.12-.13l-6.77-2.13a.48.48,0,0,1-.3-.23.47.47,0,0,1,0-.37l.17-.54a.43.43,0,0,1,.6-.31l9.51,3a.46.46,0,0,1,.29.23.45.45,0,0,1,0,.38l-.19.6a.68.68,0,0,1-.59.53L166,118.87c-.08,0-.12.06-.13.12a.14.14,0,0,0,.12.13l6.35,2a.5.5,0,0,1,.29.23.45.45,0,0,1,0,.38l-.17.54a.48.48,0,0,1-.23.3.47.47,0,0,1-.37,0l-9.51-3a.55.55,0,0,1-.3-.23.5.5,0,0,1,0-.38Z"/><path class="cls-2" d="M160.47,130.57a3.89,3.89,0,0,1-1.21-.91,3.27,3.27,0,0,1-.81-2.57,4.36,4.36,0,0,1,.44-1.46,3.38,3.38,0,0,1,.9-1.16,3.08,3.08,0,0,1,1.21-.67,3.57,3.57,0,0,1,1.43-.13,4.73,4.73,0,0,1,1.52.46l3.16,1.58a4,4,0,0,1,1.26,1,3.38,3.38,0,0,1,.75,1.23,3.45,3.45,0,0,1,.19,1.4,3.37,3.37,0,0,1-.39,1.43,4.28,4.28,0,0,1-.52.82,4.69,4.69,0,0,1-.59.59,3.4,3.4,0,0,1-.6.39c-.2.1-.38.17-.53.23a.43.43,0,0,1-.61-.3l-.17-.5a.53.53,0,0,1,0-.35.54.54,0,0,1,.3-.23,3.3,3.3,0,0,0,.69-.36,2.28,2.28,0,0,0,.75-.93,2.24,2.24,0,0,0,.24-.9,2.15,2.15,0,0,0-.16-.83,2.33,2.33,0,0,0-.5-.72,3,3,0,0,0-.78-.55l-3.16-1.58a2.72,2.72,0,0,0-1.8-.3,1.83,1.83,0,0,0-1.29,1.08A2.16,2.16,0,0,0,160,128a2.26,2.26,0,0,0,1.16,1.18l.12.06a.35.35,0,0,0,.17.05.23.23,0,0,0,.12-.06l2.65-1.79a.53.53,0,0,1,.36-.08.43.43,0,0,1,.31.22l.26.4a.45.45,0,0,1,.1.36.41.41,0,0,1-.21.3l-3.27,2.17a.72.72,0,0,1-.35.14.78.78,0,0,1-.34-.1Z"/><rect class="cls-2" x="9.69" y="183.42" width="36.53" height="0.67"/><rect class="cls-2" x="154.54" y="183.42" width="36.53" height="0.67"/><path class="cls-2" d="M68.62,55.62l-.05,3.29A7.75,7.75,0,0,0,70.31,62c1.47,1.74,10.23,5.65,10.23,7.39s.67,14.29-5.88,11.48S61,73.27,57.89,73.27a23.54,23.54,0,0,1-4-.2l-.21.59s8.21.11,14.89,9.73a29.77,29.77,0,0,0-9.37,2.35c-5.68,2.27-10,4.07-10,4.07l.27.85S58.24,87,59.84,87.13s10.28-1.07,11.08,0,1.87,3.2.27,4.81-12.67,16.78-20.82,16.78l.26,1.22S59,109,71.86,97.55c0,0,3.07-.54,3.2,3.87s3.32,14-12.72,29.18l.65.83s16.08-12.91,16.75-32.95c0,0,7.61,4.27,12.82-2.4,0,0,6.41,6.28,5.21,10s-8.66,34.49-9.46,39.43l.86.59s5.12-22.38,6.6-24,5.47,2.14,6.14,5.48,3.14,14.1,3.67,14.91,2.54,3.6,2.54,3.6l.07-.71s-5.75-13.53-2.54-17.27c1.62-1.88,9.08-4.35,11.75-2.88s15.65,9.64,15.65,9.64l1.17-1.3s-15.21-10.66-15.88-12.4-.67-5.88-.67-5.88,4.41,0,5.61,1.07,7.89,15.87,7.89,15.87L132,132l-5.9-16.8s19.65-4.19,21.52-4.32a1.55,1.55,0,0,0,1.46-2s-26.58,3.62-31.66,2.15S105.11,108.1,105,106.9s-1.47-6.41-3.07-6.15a17,17,0,0,1-2.54.27s-2.8-3.34-1.6-5.21,2.14-4.14,3.47-3.87a17.69,17.69,0,0,0,3.48.13s40.06,7.75,45.27,12.16l.93-.8S123.81,93,118.61,91.67,98.17,85.79,95.9,82.85,92.43,78.18,92,76.31s-8.68-9.21-10.42-11-11.55-5-11.87-5.74a14.89,14.89,0,0,1-.81-4.3Z"/><path class="cls-2" d="M112.33,59.62s-3.61.26-3.61-2.81-.49-3.45-1.16-4.12-3-5.32-3-7.19l-1-.65s.14,4,.94,5.61,1.87,2.8,1.87,4.81.58-.46-1.29,2.74-5.21,6.28-2.81,13.36L90.69,77.86,93.5,81,103.78,75s4.94,2.81,4.54,5.75-7.21,21.37-7.21,21.37l2.8,5.61s5.88-18.7,6-22c0,0,3.87-1.61,7.74,11s5.21,16.56,5.21,16.56l1.87-.8s-7.88-23.5-7.35-24.71,8-7.74,10.16-19.63c0,0,14.28,3.16,15.62,2.49s-.29-1.51-.29-1.51l-15.6-5.39s-2.41-2.14-2-4.54.83-6.3.83-6.3-.53-1.9-.66-1-1.64,5.4-3.37,5.93a99,99,0,0,1-9.75,1.88"/><path class="cls-2" d="M98.45,106.21s-9.66,1.89-13.4-.12-14.45-6-21.65-2.06c-8.72,4.78-9.13,4.25-12.73,5.49,0,0,14.61-3.41,19.82-2.68s14.42.19,19.1,12.61c0,0-9.62,4.81-14.16,6.55S69,127.87,69,130.14a46.81,46.81,0,0,1-.66,6.07l.55.36s1.07-7.17,4.27-8,20.87-5.78,20.87-5.78Z"/><path class="cls-4" d="M90.69,87.13a4.28,4.28,0,1,1-4.27-4.28A4.27,4.27,0,0,1,90.69,87.13Z"/><path class="cls-4" d="M121.14,69.77a4.74,4.74,0,1,1-4.74-4.68A4.7,4.7,0,0,1,121.14,69.77Z"/><path class="cls-4" d="M110.19,116.11a4.61,4.61,0,1,1-4.61-4.54A4.57,4.57,0,0,1,110.19,116.11Z"/></g></g></svg>