<svg id="Layer_1" xmlns="http://www.w3.org/2000/svg" viewBox="0 0 154.7 131.7"><style>.st0{fill:#444545;} .st1{fill:url(#SVGID_1_);} .st2{fill:url(#SVGID_2_);} .st3{fill:#46A2DA;}</style><path class="st0" d="M123.8 15.8c-5-3.2-10.5-5.6-16.2-7.1 1.1 3.4 2.3 6.9 3.5 10.3 1.9.8 3.7 1.6 5.5 2.6-3.5 4.7-5.3 10.4-5.3 16.4 0 .9.1 1.9.2 2.8 2.9-.9 5.6-1.6 8.5-2.3V38c0-4.2 1.4-8.2 3.8-11.5 1.3 1 2.5 2.1 3.6 3.3 2.3-1.8 4.7-3.5 7.2-5-3.3-3.5-6.9-6.5-10.8-9z"/><linearGradient id="SVGID_1_" gradientUnits="userSpaceOnUse" x1="10.0646" y1="35.7974" x2="144.1343" y2="35.7974"><stop offset="0" stop-color="#45A2DA"/><stop offset="1" stop-color="#45A2DA"/></linearGradient><path class="st1" d="M99.4 7.1c-2.3-.3-4.6-.4-6.9-.4-8.7 0-17 1.9-24.8 5.5-8.4 4-15.6 9.8-21.3 17.1-2.3-5.8-3.5-12-3.5-18.3 0-1.7.1-3.4.3-5.1l.5-5.9-5.8 1.3C21.8 4.8 10 19.3 10 35.9c0 16.4 11.6 30.9 27.6 34.5l5.6 1.3-.3-5.7v-1c0-6.3 1.2-12.5 3.5-18.3.5-1.4 2.8-6.3 4.4-8.6 5-7.8 12.1-14 20.5-17.9 6.6-3.1 13.7-4.7 21.1-4.7 3.4 0 6.7.4 10 1-1-3.2-2-6.3-3-9.4zM40.8 38c-3.6 6.9-5.8 14.4-6.4 22.2-9.3-4.2-15.7-13.8-15.7-24.4 0-10.5 6.3-20 15.6-24.3.1 9.2 2.3 18.3 6.6 26.4v.1h-.1z"/><linearGradient id="SVGID_2_" gradientUnits="userSpaceOnUse" x1="10.0646" y1="49.7444" x2="144.1343" y2="49.7444"><stop offset="0" stop-color="#45A2DA"/><stop offset="1" stop-color="#45A2DA"/></linearGradient><path class="st2" d="M142.9 35.8c-1.1-1.9-2.3-3.7-3.6-5.5-2.3 1.4-7 4.8-7.1 4.9.7.9 1.3 1.8 2 2.8-2.8 4.4-6.3 8.2-10.3 11.5-.9-1.2-1.7-2.5-2.3-3.9-2.8.7-5.6 1.4-8.4 2.2.9 2.3 2 4.5 3.5 6.5-7.3 4.1-15.6 6.3-24.2 6.3-8.2 0-16.4-2.1-23.6-6-5-2.7-9.4-6.2-13.1-10.3-1.7 2.8-2.9 5.8-3.8 8.5 3.8 3.7 8.1 6.9 12.8 9.4 8.5 4.6 18 7 27.7 7 12.4 0 24.2-3.8 34.2-11.1 6.7-4.8 12.1-10.9 16.2-18l1.2-2.2-1.2-2.1z"/><g><path class="st0" d="M8 128.1l-1.3 3.5c-4.4-.4-6.7-2.8-6.7-7.1V96.7h4.5v9.8h5.1l-1.2 4.2H4.5v13.9c0 2 1.2 3.2 3.5 3.5zM18.3 107.1c1.2-.7 2.7-1 4.5-1s3.4.3 4.9.9c2.8 1.3 4.2 3.6 4.2 7.1v17h-4.5v-15.7c0-1.6-.4-2.8-1.1-3.6s-1.6-1.3-2.6-1.5h-1.2c-1.7 0-3.2.4-4.4 1.1V131h-4.5V96.7h4.5v10.4zM43.6 98.7c0 .6-.2 1.2-.7 1.7-.5.5-1.1.8-1.7.8-.6 0-1.2-.3-1.7-.8s-.8-1.1-.8-1.7.3-1.2.8-1.7 1.1-.7 1.7-.7c.6 0 1.2.2 1.7.7.5.5.7 1 .7 1.7zm-.3 32.3h-4.5v-24.5h4.5V131zM57.6 127.5c1.8 0 4-.7 6.4-2l1.7 3.8c-2.5 1.5-5.1 2.3-7.9 2.3-5.7 0-8.5-2.4-8.5-7.2v-10c0-2.6.8-4.7 2.5-6.2s3.8-2.2 6.5-2.2 4.8.7 6.3 2.2c1.5 1.5 2.3 3.5 2.3 6.1v7.1l-13.1.7v1.9c0 1.3.4 2.2 1.2 2.7s1.6.8 2.6.8zm4.8-10.1v-3.2c0-1.3-.4-2.3-1.3-3-.8-.6-1.9-1-3.2-1s-2.3.4-3 1.2-1.2 1.8-1.2 3v3.4l8.7-.4zM77.1 131h-4.5V96.7h4.5V131zM91 127.5c1.8 0 4-.7 6.4-2l1.7 3.8c-2.5 1.5-5.1 2.3-7.9 2.3-5.7 0-8.5-2.4-8.5-7.2v-10c0-2.6.8-4.7 2.5-6.2s3.8-2.2 6.5-2.2 4.8.7 6.3 2.2c1.5 1.5 2.3 3.5 2.3 6.1v7.1l-13.1.7v1.9c0 1.3.4 2.2 1.2 2.7s1.6.8 2.6.8zm4.8-10.1v-3.2c0-1.3-.4-2.3-1.3-3-.8-.6-1.9-1-3.2-1s-2.3.4-3 1.2-1.2 1.8-1.2 3v3.4l8.7-.4z"/><path class="st3" d="M108.8 131h-2.7V96.7h2.7V131zM125.3 131.5c-7.2 0-10.7-2.9-10.7-8.8v-4.1c0-3.2 1.1-5.4 3.4-6.5 1.2-.6 2.3-.8 3.5-.8 3.9 0 6.9.9 9.3 2.7 0-1.8-.5-3.2-1.6-4.3-1-1.1-3.1-1.6-6-1.6l.1-2.1c2.6 0 4.6.3 5.9.9.7.4 1.3.7 1.8 1.1.5.4.9.8 1.2 1.4s.5 1.1.7 1.5c.2.4.3 1 .4 1.8.1 1.1.1 2.3.1 3.6V131c-3.4.4-6.1.5-8.1.5zm5.4-2.7v-12.6c-2.7-1.3-5.5-2.1-8.3-2.3h-.6c-1.2 0-2.3.4-3.2 1.2-.9.8-1.3 2.1-1.3 3.8v4.3c0 2.7 1.2 4.5 3.5 5.3 1.4.5 2.9.7 4.7.7 1.7-.1 3.4-.2 5.2-.4zM139.4 107.8c1.6-1.1 3.8-1.7 6.5-1.7 1.8 0 3.4.3 4.7.9 2.8 1.3 4.2 3.6 4.2 7.1v9.3c0 3.2-1.3 5.5-3.8 6.8-1.9 1-4.1 1.5-6.5 1.5-2.4 0-5-.2-7.8-.6V96.7h2.7v11.1zm0 2.4v18.5c1.8.3 3.5.4 4.9.4 5.1 0 7.7-1.9 7.7-5.7v-9.2c0-1.7-.5-3-1.4-4-1.1-1.1-2.8-1.7-5-1.7s-4.2.6-6.2 1.7z"/></g></svg>